#!OML:ASF F:\VICON\USERDATA\INSTALL\rory3\rory3.ASF
:FULLY-SPECIFIED
:DEGREES
9
root 1.0139178051494615 17.565218409857994 -22.87928602157716 -1.5699082498463879 2.227792280266856 2.178127439193882
lfemur 13.83338427311239 -3.332757155295368 -26.28948962914705
ltibia 19.742407933507284
lfoot -17.438989408229027 -4.0239074231735374
ltoes -5.569917641974604
rfemur -30.663088087115273 7.463590630070521 16.557914341673367
rtibia 25.425307320019296
rfoot -4.864394830500516 -8.75378387298353
rtoes 0.2505433315966554
lowerback 11.704385533394813 -1.8720952564216424 -4.354446230503048
upperback -0.3678399554064369 -2.94419440560785 2.172163734140806
thorax -6.62912339090945 -1.254965101760333 5.2663124093220794
lowerneck -16.296294083625675 -1.9435641737918785 -2.583406914396601
upperneck 22.183704348596407 -1.75742478618391 -1.103447462565511
head 9.742373239482669 -1.1664454984066581 -0.1833021552649043
lclavicle -2.702606460926292e-15 -2.323048185371802e-15
lhumerus -23.608011859503804 -4.3050052211970815 79.98990745829003
lradius 37.685275712547146
lwrist 10.038782525713922
lhand -32.03648219817104 21.391606184054748
lfingers 7.125020000000001
lthumb -5.283972198797556 51.305706305452205
rclavicle -2.702606460926292e-15 -2.323048185371802e-15
rhumerus -39.17488623267437 -32.194788829325205 -65.53131583559129
rradius 18.84891120767924
rwrist 14.391386665309742
rhand -19.16509250101862 21.844102854262427
rfingers 7.125020000000001
rthumb 7.145767498609813 -8.015246935408696
10
root 0.9150851965987572 17.65751264473772 -21.866886470987193 -2.065614314463226 1.7768444284173934 0.592385857831828
lfemur 13.440884537322173 -4.60683220495957 -24.537892412413903
ltibia 27.222703611970392
lfoot -13.093994087327648 -6.242244153001449
ltoes -16.326583107405902
rfemur -29.626888825298984 5.873445582188004 19.89020921968259
rtibia 29.46460505161887
rfoot -0.8573646991367818 -5.302352300110721
rtoes 3.4235101974374538
lowerback 11.830984223236305 -2.0988537072030686 -2.7630604156648184
upperback -0.5783008261699375 -2.9879342118356775 2.745847211319034
thorax -6.968278770801 -1.3072545941119347 4.998803545983372
lowerneck -16.444291886502736 -1.7604590416489554 -2.741214219663668
upperneck 22.921899563973696 -1.329830796440718 -1.5627323266963398
head 10.030498268814114 -1.0451304582590408 -0.2687235659813669
lclavicle -2.7026064249107327e-15 -2.323048145399729e-15
lhumerus -24.981309436813532 -2.3340390683503554 80.61160395357403
lradius 35.81707914220818
lwrist 8.684896018823164
lhand -32.60167994123248 23.409401065522125
lfingers 7.125020000000001
lthumb -5.8296499425683574 53.30920122689541
rclavicle -2.7026064249107327e-15 -2.323048145399729e-15
rhumerus -40.41998441713391 -33.1946875912901 -63.865318478961974
rradius 18.293312283604177
rwrist 13.854387522430844
rhand -21.19977626186728 20.222812675225917
rfingers 7.125020000000001
rthumb 5.181443742389932 -9.693876800026775
11
root 0.8169955700701412 17.782904812169118 -20.83458692923078 -2.632349815181277 0.8315479314639809 -0.3928863967262701
lfemur 9.797666989740605 -2.8231491353442077 -22.123996248065794
ltibia 38.23079725234435
lfoot -0.4736086781426634 -12.803384480863883
ltoes -17.079982089401835
rfemur -26.95769072682386 5.2046476649953854 22.493105218833406
rtibia 32.13470355213731
rfoot -1.5196988943851073 -3.690936234596411
rtoes 5.267047214420943
lowerback 11.45448811956078 -1.743026138224614 -1.3215842065815584
upperback -0.3957834071566827 -2.3251671479670604 2.5469594726867117
thorax -6.691912535570939 -1.0470571202185208 3.831458506102889
lowerneck -16.627489166820833 -2.030131872386236 -2.4123298357254814
upperneck 23.25299741795828 -1.86450328108966 -1.2747955464968352
head 10.184095618986985 -1.231772827559672 -0.2992816397087076
lclavicle -2.7026066137650112e-15 -2.323048111484078e-15
lhumerus -25.97950767585129 -0.9559387582814578 80.87940244390226
lradius 32.92148445798087
lwrist 6.681811186903431
lhand -32.31868107129904 23.363301182463523
lfingers 7.125020000000001
lthumb -5.55643107225416 53.270501324993816
rclavicle -2.7026066137650112e-15 -2.323048111484078e-15
rhumerus -41.058083486689526 -34.11448645243151 -63.996518270792535
rradius 18.34011219297551
rwrist 13.305788398067087
rhand -22.340467157822506 18.070325713913338
rfingers 7.125020000000001
rthumb 4.079982850811316 -11.870373658578867
12
root 0.6988864279530701 17.95089431877577 -19.888287349298622 -3.0397565808013876 0.2634726375668013 -2.5655393426712583
lfemur 2.4735519199416576 -1.7136434462564512 -18.31200230527819
ltibia 50.485790172356246
lfoot 13.560777208314011 -21.61637148915537
ltoes 7.834094246322236
rfemur -22.56669385495055 6.543783494584674 25.831600087312776
rtibia 31.298804021564152
rfoot -4.223905608710043 -4.616253975310629
rtoes 5.1579373909709165
lowerback 11.834684184945733 -1.6023370994151325 0.5836827827852498
upperback -0.4098431313052805 -1.835979315123251 3.0217240745795575
thorax -7.002968298246564 -0.8604539318408084 3.192031223067999
lowerneck -16.99158376160149 -2.4136816756997583 -2.447539234486353
upperneck 23.580195297220605 -2.4166255204650238 -1.137447082370972
head 10.377092289451598 -1.4748728886401767 -0.32867674868769686
lclavicle -2.7026064914832934e-15 -2.3230481466110083e-15
lhumerus -27.333205287738107 1.2906938564884656 81.13230101822641
lradius 30.719488500435475
lwrist 5.720163668012302
lhand -30.692787563790937 23.62770051176275
lfingers 7.125020000000001
lthumb -3.9864475637093904 53.57020056530155
rclavicle -2.7026064914832934e-15 -2.3230481466110083e-15
rhumerus -39.90128517347544 -33.60348708513074 -64.91741680964005
rradius 17.763713309179867
rwrist 14.514886468187857
rhand -18.867894873002584 20.874308728789284
rfingers 7.125020000000001
rthumb 7.4326651261383905 -8.975101139914909
